<svg width="606" height="122" viewBox="0 0 606 122" fill="none" xmlns="http://www.w3.org/2000/svg">
<path d="M128.24 11.84L113.6 68H97.04L88.08 31.04L78.8 68H62.24L48 11.84H62.64L70.72 52.72L80.72 11.84H95.76L105.36 52.72L113.52 11.84H128.24ZM162.541 22.88C167.661 22.88 171.767 24.5867 174.861 28C177.954 31.36 179.501 36 179.501 41.92V68H165.901V43.76C165.901 40.7733 165.127 38.4533 163.581 36.8C162.034 35.1467 159.954 34.32 157.341 34.32C154.727 34.32 152.647 35.1467 151.101 36.8C149.554 38.4533 148.781 40.7733 148.781 43.76V68H135.101V8.8H148.781V29.36C150.167 27.3867 152.061 25.8133 154.461 24.64C156.861 23.4667 159.554 22.88 162.541 22.88ZM186.287 45.6C186.287 41.0133 187.14 36.9867 188.847 33.52C190.607 30.0533 192.98 27.3867 195.967 25.52C198.954 23.6533 202.287 22.72 205.967 22.72C209.114 22.72 211.86 23.36 214.207 24.64C216.607 25.92 218.447 27.6 219.727 29.68V23.36H233.407V68H219.727V61.68C218.394 63.76 216.527 65.44 214.127 66.72C211.78 68 209.034 68.64 205.887 68.64C202.26 68.64 198.954 67.7067 195.967 65.84C192.98 63.92 190.607 61.2267 188.847 57.76C187.14 54.24 186.287 50.1867 186.287 45.6ZM219.727 45.68C219.727 42.2667 218.767 39.5733 216.847 37.6C214.98 35.6267 212.687 34.64 209.967 34.64C207.247 34.64 204.927 35.6267 203.007 37.6C201.14 39.52 200.207 42.1867 200.207 45.6C200.207 49.0133 201.14 51.7333 203.007 53.76C204.927 55.7333 207.247 56.72 209.967 56.72C212.687 56.72 214.98 55.7333 216.847 53.76C218.767 51.7867 219.727 49.0933 219.727 45.68ZM268.184 56.4V68H261.224C256.264 68 252.397 66.8 249.624 64.4C246.85 61.9467 245.464 57.9733 245.464 52.48V34.72H240.024V23.36H245.464V12.48H259.144V23.36H268.104V34.72H259.144V52.64C259.144 53.9733 259.464 54.9333 260.104 55.52C260.744 56.1067 261.81 56.4 263.304 56.4H268.184ZM299.637 18.72C297.237 18.72 295.264 18.0267 293.717 16.64C292.224 15.2 291.477 13.44 291.477 11.36C291.477 9.22667 292.224 7.46666 293.717 6.08C295.264 4.64 297.237 3.92 299.637 3.92C301.984 3.92 303.904 4.64 305.397 6.08C306.944 7.46666 307.717 9.22667 307.717 11.36C307.717 13.44 306.944 15.2 305.397 16.64C303.904 18.0267 301.984 18.72 299.637 18.72ZM306.437 23.36V68H292.757V23.36H306.437ZM334.511 68.64C330.617 68.64 327.151 67.9733 324.111 66.64C321.071 65.3067 318.671 63.4933 316.911 61.2C315.151 58.8533 314.164 56.24 313.951 53.36H327.471C327.631 54.9067 328.351 56.16 329.631 57.12C330.911 58.08 332.484 58.56 334.351 58.56C336.057 58.56 337.364 58.24 338.271 57.6C339.231 56.9067 339.711 56.0267 339.711 54.96C339.711 53.68 339.044 52.7467 337.711 52.16C336.377 51.52 334.217 50.8267 331.231 50.08C328.031 49.3333 325.364 48.56 323.231 47.76C321.097 46.9067 319.257 45.6 317.711 43.84C316.164 42.0267 315.391 39.6 315.391 36.56C315.391 34 316.084 31.68 317.471 29.6C318.911 27.4667 320.991 25.7867 323.711 24.56C326.484 23.3333 329.764 22.72 333.551 22.72C339.151 22.72 343.551 24.1067 346.751 26.88C350.004 29.6533 351.871 33.3333 352.351 37.92H339.711C339.497 36.3733 338.804 35.1467 337.631 34.24C336.511 33.3333 335.017 32.88 333.151 32.88C331.551 32.88 330.324 33.2 329.471 33.84C328.617 34.4267 328.191 35.2533 328.191 36.32C328.191 37.6 328.857 38.56 330.191 39.2C331.577 39.84 333.711 40.48 336.591 41.12C339.897 41.9733 342.591 42.8267 344.671 43.68C346.751 44.48 348.564 45.8133 350.111 47.68C351.711 49.4933 352.537 51.9467 352.591 55.04C352.591 57.6533 351.844 60 350.351 62.08C348.911 64.1067 346.804 65.7067 344.031 66.88C341.311 68.0533 338.137 68.64 334.511 68.64ZM414.473 11.84V22.8H391.593V34.64H408.713V45.28H391.593V68H377.913V11.84H414.473ZM441.983 68.56C437.876 68.56 434.196 67.8933 430.943 66.56C427.69 65.2267 425.076 63.2533 423.103 60.64C421.183 58.0267 420.17 54.88 420.063 51.2H434.623C434.836 53.28 435.556 54.88 436.783 56C438.01 57.0667 439.61 57.6 441.583 57.6C443.61 57.6 445.21 57.1467 446.383 56.24C447.556 55.28 448.143 53.9733 448.143 52.32C448.143 50.9333 447.663 49.7867 446.703 48.88C445.796 47.9733 444.65 47.2267 443.263 46.64C441.93 46.0533 440.01 45.3867 437.503 44.64C433.876 43.52 430.916 42.4 428.623 41.28C426.33 40.16 424.356 38.5067 422.703 36.32C421.05 34.1333 420.223 31.28 420.223 27.76C420.223 22.5333 422.116 18.4533 425.903 15.52C429.69 12.5333 434.623 11.04 440.703 11.04C446.89 11.04 451.876 12.5333 455.663 15.52C459.45 18.4533 461.476 22.56 461.743 27.84H446.943C446.836 26.0267 446.17 24.6133 444.943 23.6C443.716 22.5333 442.143 22 440.223 22C438.57 22 437.236 22.4533 436.223 23.36C435.21 24.2133 434.703 25.4667 434.703 27.12C434.703 28.9333 435.556 30.3467 437.263 31.36C438.97 32.3733 441.636 33.4667 445.263 34.64C448.89 35.8667 451.823 37.04 454.063 38.16C456.356 39.28 458.33 40.9067 459.983 43.04C461.636 45.1733 462.463 47.92 462.463 51.28C462.463 54.48 461.636 57.3867 459.983 60C458.383 62.6133 456.036 64.6933 452.943 66.24C449.85 67.7867 446.196 68.56 441.983 68.56ZM513.682 29.92C513.682 33.1733 512.935 36.16 511.442 38.88C509.949 41.5467 507.655 43.7067 504.562 45.36C501.469 47.0133 497.629 47.84 493.042 47.84H484.562V68H470.882V11.84H493.042C497.522 11.84 501.309 12.6133 504.402 14.16C507.495 15.7067 509.815 17.84 511.362 20.56C512.909 23.28 513.682 26.4 513.682 29.92ZM492.002 36.96C494.615 36.96 496.562 36.3467 497.842 35.12C499.122 33.8933 499.762 32.16 499.762 29.92C499.762 27.68 499.122 25.9467 497.842 24.72C496.562 23.4933 494.615 22.88 492.002 22.88H484.562V36.96H492.002ZM537.204 8.72C542.91 8.72 547.47 10.2133 550.884 13.2C554.35 16.1867 556.084 20.4 556.084 25.84C556.084 30.8533 554.43 34.7733 551.124 37.6C547.87 40.3733 543.55 41.7867 538.164 41.84L537.764 47.84H525.764L525.364 32.96H530.164C534.27 32.96 537.39 32.4533 539.524 31.44C541.71 30.4267 542.804 28.5867 542.804 25.92C542.804 24.0533 542.297 22.5867 541.284 21.52C540.27 20.4533 538.857 19.92 537.044 19.92C535.124 19.92 533.63 20.48 532.564 21.6C531.497 22.6667 530.964 24.1333 530.964 26H518.084C517.977 22.7467 518.644 19.8133 520.084 17.2C521.577 14.5867 523.764 12.5333 526.644 11.04C529.577 9.49333 533.097 8.72 537.204 8.72ZM531.924 68.64C529.524 68.64 527.55 67.9467 526.004 66.56C524.51 65.12 523.764 63.36 523.764 61.28C523.764 59.1467 524.51 57.36 526.004 55.92C527.55 54.48 529.524 53.76 531.924 53.76C534.27 53.76 536.19 54.48 537.684 55.92C539.23 57.36 540.004 59.1467 540.004 61.28C540.004 63.36 539.23 65.12 537.684 66.56C536.19 67.9467 534.27 68.64 531.924 68.64Z" fill="#F2F2F2"/>
<path d="M592 107.222C303 84.2221 14 107.222 14 107.222" stroke="url(#paint0_linear_351_534)" stroke-width="28" stroke-linecap="round"/>
<defs>
<linearGradient id="paint0_linear_351_534" x1="3.5" y1="113.722" x2="589" y2="113.722" gradientUnits="userSpaceOnUse">
<stop stop-color="#7864FF"/>
<stop offset="1" stop-color="#32A6FF"/>
</linearGradient>
</defs>
</svg>
