<svg width="703" height="121" viewBox="0 0 703 121" fill="none" xmlns="http://www.w3.org/2000/svg">
<path d="M113.56 11.84V68H99.88V34.32L87.32 68H76.28L63.64 34.24V68H49.96V11.84H66.12L81.88 50.72L97.48 11.84H113.56ZM165.477 44.96C165.477 46.24 165.398 47.5733 165.238 48.96H134.278C134.491 51.7333 135.371 53.8667 136.918 55.36C138.518 56.8 140.464 57.52 142.758 57.52C146.171 57.52 148.544 56.08 149.878 53.2H164.438C163.691 56.1333 162.331 58.7733 160.358 61.12C158.438 63.4667 156.011 65.3067 153.078 66.64C150.144 67.9733 146.864 68.64 143.238 68.64C138.864 68.64 134.971 67.7067 131.558 65.84C128.144 63.9733 125.478 61.3067 123.558 57.84C121.638 54.3733 120.678 50.32 120.678 45.68C120.678 41.04 121.611 36.9867 123.478 33.52C125.398 30.0533 128.064 27.3867 131.478 25.52C134.891 23.6533 138.811 22.72 143.238 22.72C147.558 22.72 151.398 23.6267 154.758 25.44C158.118 27.2533 160.731 29.84 162.598 33.2C164.518 36.56 165.477 40.48 165.477 44.96ZM151.478 41.36C151.478 39.0133 150.678 37.1467 149.078 35.76C147.478 34.3733 145.478 33.68 143.078 33.68C140.784 33.68 138.838 34.3467 137.238 35.68C135.691 37.0133 134.731 38.9067 134.358 41.36H151.478ZM214.774 44.96C214.774 46.24 214.694 47.5733 214.534 48.96H183.574C183.788 51.7333 184.668 53.8667 186.214 55.36C187.814 56.8 189.761 57.52 192.054 57.52C195.468 57.52 197.841 56.08 199.174 53.2H213.734C212.988 56.1333 211.628 58.7733 209.654 61.12C207.734 63.4667 205.308 65.3067 202.374 66.64C199.441 67.9733 196.161 68.64 192.534 68.64C188.161 68.64 184.268 67.7067 180.854 65.84C177.441 63.9733 174.774 61.3067 172.854 57.84C170.934 54.3733 169.974 50.32 169.974 45.68C169.974 41.04 170.908 36.9867 172.774 33.52C174.694 30.0533 177.361 27.3867 180.774 25.52C184.188 23.6533 188.108 22.72 192.534 22.72C196.854 22.72 200.694 23.6267 204.054 25.44C207.414 27.2533 210.028 29.84 211.894 33.2C213.814 36.56 214.774 40.48 214.774 44.96ZM200.774 41.36C200.774 39.0133 199.974 37.1467 198.374 35.76C196.774 34.3733 194.774 33.68 192.374 33.68C190.081 33.68 188.134 34.3467 186.534 35.68C184.988 37.0133 184.028 38.9067 183.654 41.36H200.774ZM246.871 56.4V68H239.911C234.951 68 231.085 66.8 228.311 64.4C225.538 61.9467 224.151 57.9733 224.151 52.48V34.72H218.711V23.36H224.151V12.48H237.831V23.36H246.791V34.72H237.831V52.64C237.831 53.9733 238.151 54.9333 238.791 55.52C239.431 56.1067 240.498 56.4 241.991 56.4H246.871ZM298.004 68.56C292.724 68.56 287.871 67.3333 283.444 64.88C279.071 62.4267 275.578 59.0133 272.964 54.64C270.404 50.2133 269.124 45.2533 269.124 39.76C269.124 34.2667 270.404 29.3333 272.964 24.96C275.578 20.5867 279.071 17.1733 283.444 14.72C287.871 12.2667 292.724 11.04 298.004 11.04C303.284 11.04 308.111 12.2667 312.484 14.72C316.911 17.1733 320.378 20.5867 322.884 24.96C325.444 29.3333 326.724 34.2667 326.724 39.76C326.724 45.2533 325.444 50.2133 322.884 54.64C320.324 59.0133 316.858 62.4267 312.484 64.88C308.111 67.3333 303.284 68.56 298.004 68.56ZM298.004 56.08C302.484 56.08 306.058 54.5867 308.724 51.6C311.444 48.6133 312.804 44.6667 312.804 39.76C312.804 34.8 311.444 30.8533 308.724 27.92C306.058 24.9333 302.484 23.44 298.004 23.44C293.471 23.44 289.844 24.9067 287.124 27.84C284.458 30.7733 283.124 34.7467 283.124 39.76C283.124 44.72 284.458 48.6933 287.124 51.68C289.844 54.6133 293.471 56.08 298.004 56.08ZM378.415 23.36V68H364.735V61.92C363.348 63.8933 361.455 65.4933 359.055 66.72C356.708 67.8933 354.095 68.48 351.215 68.48C347.802 68.48 344.788 67.7333 342.175 66.24C339.562 64.6933 337.535 62.48 336.095 59.6C334.655 56.72 333.935 53.3333 333.935 49.44V23.36H347.535V47.6C347.535 50.5867 348.308 52.9067 349.855 54.56C351.402 56.2133 353.482 57.04 356.095 57.04C358.762 57.04 360.868 56.2133 362.415 54.56C363.962 52.9067 364.735 50.5867 364.735 47.6V23.36H378.415ZM401.921 30.8C403.521 28.3467 405.521 26.4267 407.921 25.04C410.321 23.6 412.988 22.88 415.921 22.88V37.36H412.161C408.748 37.36 406.188 38.1067 404.481 39.6C402.775 41.04 401.921 43.6 401.921 47.28V68H388.241V23.36H401.921V30.8Z" fill="white"/>
<path d="M474.36 11.84V22.8H459.48V68H445.8V22.8H430.92V11.84H474.36ZM523.306 44.96C523.306 46.24 523.226 47.5733 523.066 48.96H492.106C492.319 51.7333 493.199 53.8667 494.746 55.36C496.346 56.8 498.292 57.52 500.586 57.52C503.999 57.52 506.372 56.08 507.706 53.2H522.266C521.519 56.1333 520.159 58.7733 518.186 61.12C516.266 63.4667 513.839 65.3067 510.906 66.64C507.972 67.9733 504.692 68.64 501.066 68.64C496.692 68.64 492.799 67.7067 489.386 65.84C485.972 63.9733 483.306 61.3067 481.386 57.84C479.466 54.3733 478.506 50.32 478.506 45.68C478.506 41.04 479.439 36.9867 481.306 33.52C483.226 30.0533 485.892 27.3867 489.306 25.52C492.719 23.6533 496.639 22.72 501.066 22.72C505.386 22.72 509.226 23.6267 512.586 25.44C515.946 27.2533 518.559 29.84 520.426 33.2C522.346 36.56 523.306 40.48 523.306 44.96ZM509.306 41.36C509.306 39.0133 508.506 37.1467 506.906 35.76C505.306 34.3733 503.306 33.68 500.906 33.68C498.612 33.68 496.666 34.3467 495.066 35.68C493.519 37.0133 492.559 38.9067 492.186 41.36H509.306ZM527.803 45.6C527.803 41.0133 528.656 36.9867 530.363 33.52C532.123 30.0533 534.496 27.3867 537.483 25.52C540.469 23.6533 543.803 22.72 547.483 22.72C550.629 22.72 553.376 23.36 555.723 24.64C558.123 25.92 559.963 27.6 561.243 29.68V23.36H574.923V68H561.243V61.68C559.909 63.76 558.043 65.44 555.643 66.72C553.296 68 550.549 68.64 547.403 68.64C543.776 68.64 540.469 67.7067 537.483 65.84C534.496 63.92 532.123 61.2267 530.363 57.76C528.656 54.24 527.803 50.1867 527.803 45.6ZM561.243 45.68C561.243 42.2667 560.283 39.5733 558.363 37.6C556.496 35.6267 554.203 34.64 551.483 34.64C548.763 34.64 546.443 35.6267 544.523 37.6C542.656 39.52 541.723 42.1867 541.723 45.6C541.723 49.0133 542.656 51.7333 544.523 53.76C546.443 55.7333 548.763 56.72 551.483 56.72C554.203 56.72 556.496 55.7333 558.363 53.76C560.283 51.7867 561.243 49.0933 561.243 45.68ZM641.779 22.88C647.326 22.88 651.726 24.56 654.979 27.92C658.286 31.28 659.939 35.9467 659.939 41.92V68H646.339V43.76C646.339 40.88 645.566 38.6667 644.019 37.12C642.526 35.52 640.446 34.72 637.779 34.72C635.113 34.72 633.006 35.52 631.459 37.12C629.966 38.6667 629.219 40.88 629.219 43.76V68H615.619V43.76C615.619 40.88 614.846 38.6667 613.299 37.12C611.806 35.52 609.726 34.72 607.059 34.72C604.393 34.72 602.286 35.52 600.739 37.12C599.246 38.6667 598.499 40.88 598.499 43.76V68H584.819V23.36H598.499V28.96C599.886 27.0933 601.699 25.6267 603.939 24.56C606.179 23.44 608.713 22.88 611.539 22.88C614.899 22.88 617.886 23.6 620.499 25.04C623.166 26.48 625.246 28.5333 626.739 31.2C628.286 28.7467 630.393 26.7467 633.059 25.2C635.726 23.6533 638.633 22.88 641.779 22.88Z" fill="url(#paint0_linear_389_526)"/>
<path d="M689 107C351.5 84.5 14 107 14 107" stroke="url(#paint1_linear_389_526)" stroke-width="28" stroke-linecap="round"/>
<defs>
<linearGradient id="paint0_linear_389_526" x1="429" y1="40" x2="665" y2="40" gradientUnits="userSpaceOnUse">
<stop stop-color="white"/>
<stop offset="0.24" stop-color="#9DCEFF"/>
<stop offset="0.48" stop-color="#1E90FF"/>
<stop offset="0.73" stop-color="#45A8F5"/>
<stop offset="1" stop-color="#00C2E0"/>
</linearGradient>
<linearGradient id="paint1_linear_389_526" x1="1.73789" y1="113.359" x2="685.496" y2="113.359" gradientUnits="userSpaceOnUse">
<stop stop-color="#7864FF"/>
<stop offset="1" stop-color="#32A6FF"/>
</linearGradient>
</defs>
</svg>
