<svg width="384" height="64" viewBox="0 0 384 64" fill="none" xmlns="http://www.w3.org/2000/svg">
<path d="M54.2643 14.1269L43.7039 51.9277H34.7681L27.6737 25.0122L20.2543 51.9277L11.3728 51.9819L1.19143 14.1269H9.31483L15.976 43.4794L23.6662 14.1269H32.1145L39.3714 43.3169L46.0867 14.1269H54.2643ZM76.1116 21.4921C78.3861 21.4921 80.4079 21.9975 82.177 23.0084C83.9461 23.9833 85.3181 25.4455 86.2929 27.3951C87.3038 29.3086 87.8093 31.6192 87.8093 34.327V51.9277H80.2274V35.356C80.2274 32.9731 79.6317 31.1499 78.4403 29.8863C77.2488 28.5865 75.6242 27.9366 73.5662 27.9366C71.4722 27.9366 69.8114 28.5865 68.5839 29.8863C67.3925 31.1499 66.7967 32.9731 66.7967 35.356V51.9277H59.2149V11.8523H66.7967V25.6621C67.7715 24.3623 69.0713 23.3514 70.696 22.6294C72.3206 21.8712 74.1258 21.4921 76.1116 21.4921ZM93.0696 36.8182C93.0696 33.7855 93.6653 31.0957 94.8567 28.749C96.0843 26.4022 97.727 24.597 99.7849 23.3334C101.879 22.0697 104.208 21.4379 106.771 21.4379C109.009 21.4379 110.959 21.8892 112.62 22.7918C114.317 23.6944 115.671 24.8317 116.682 26.2036V21.9253H124.318V51.9277H116.682V47.5411C115.707 48.9492 114.353 50.1225 112.62 51.0612C110.923 51.9638 108.955 52.4151 106.717 52.4151C104.19 52.4151 101.879 51.7653 99.7849 50.4655C97.727 49.1658 96.0843 47.3425 94.8567 44.9958C93.6653 42.6129 93.0696 39.8871 93.0696 36.8182ZM116.682 36.9265C116.682 35.0852 116.321 33.5147 115.598 32.215C114.876 30.8791 113.902 29.8682 112.674 29.1822C111.446 28.4601 110.129 28.0991 108.721 28.0991C107.313 28.0991 106.013 28.4421 104.821 29.1281C103.63 29.814 102.655 30.825 101.897 32.1608C101.175 33.4605 100.814 35.013 100.814 36.8182C100.814 38.6234 101.175 40.212 101.897 41.5839C102.655 42.9198 103.63 43.9488 104.821 44.6708C106.049 45.3929 107.349 45.754 108.721 45.754C110.129 45.754 111.446 45.411 112.674 44.725C113.902 44.0029 114.876 42.992 115.598 41.6923C116.321 40.3564 116.682 38.7678 116.682 36.9265ZM120.093 12.2856V17.7012H99.4058V12.2856H120.093ZM148.348 21.4921C151.923 21.4921 154.811 22.6294 157.013 24.9039C159.216 27.1424 160.317 30.2834 160.317 34.327V51.9277H152.735V35.356C152.735 32.9731 152.139 31.1499 150.948 29.8863C149.756 28.5865 148.132 27.9366 146.074 27.9366C143.98 27.9366 142.319 28.5865 141.092 29.8863C139.9 31.1499 139.304 32.9731 139.304 35.356V51.9277H131.723V21.9253H139.304V25.6621C140.315 24.3623 141.597 23.3514 143.149 22.6294C144.738 21.8712 146.471 21.4921 148.348 21.4921ZM165.577 36.8182C165.577 33.7855 166.173 31.0957 167.364 28.749C168.592 26.4022 170.235 24.597 172.293 23.3334C174.387 22.0697 176.715 21.4379 179.279 21.4379C181.517 21.4379 183.467 21.8892 185.128 22.7918C186.824 23.6944 188.178 24.8317 189.189 26.2036V21.9253H196.825V51.9277H189.189V47.5411C188.214 48.9492 186.861 50.1225 185.128 51.0612C183.431 51.9638 181.463 52.4151 179.225 52.4151C176.697 52.4151 174.387 51.7653 172.293 50.4655C170.235 49.1658 168.592 47.3425 167.364 44.9958C166.173 42.6129 165.577 39.8871 165.577 36.8182ZM189.189 36.9265C189.189 35.0852 188.828 33.5147 188.106 32.215C187.384 30.8791 186.409 29.8682 185.182 29.1822C183.954 28.4601 182.636 28.0991 181.228 28.0991C179.82 28.0991 178.521 28.4421 177.329 29.1281C176.138 29.814 175.163 30.825 174.405 32.1608C173.683 33.4605 173.322 35.013 173.322 36.8182C173.322 38.6234 173.683 40.212 174.405 41.5839C175.163 42.9198 176.138 43.9488 177.329 44.6708C178.557 45.3929 179.856 45.754 181.228 45.754C182.636 45.754 183.954 45.411 185.182 44.725C186.409 44.0029 187.384 42.992 188.106 41.6923C188.828 40.3564 189.189 38.7678 189.189 36.9265ZM232.554 21.9253V51.9277H224.918V48.1368C223.943 49.4366 222.661 50.4655 221.073 51.2237C219.52 51.9458 217.823 52.3068 215.982 52.3068C213.635 52.3068 211.559 51.8194 209.754 50.8446C207.949 49.8337 206.523 48.3715 205.476 46.458C204.465 44.5084 203.959 42.1977 203.959 39.526V21.9253H211.541V38.4429C211.541 40.8258 212.137 42.6671 213.328 43.9668C214.52 45.2304 216.145 45.8623 218.202 45.8623C220.296 45.8623 221.939 45.2304 223.131 43.9668C224.322 42.6671 224.918 40.8258 224.918 38.4429V21.9253H232.554Z" fill="black"/>
<path d="M276.296 10.264V13.976H263.88V55H259.4V13.976H246.92V10.264H276.296ZM309.29 44.376H288.938L285.034 55H280.298L296.618 10.84H301.674L317.93 55H313.194L309.29 44.376ZM307.946 40.664L299.114 16.472L290.282 40.664H307.946ZM309.994 0.983997V4.44H288.298V0.983997H309.994ZM329.6 51.352H345.664V55H325.12V10.264H329.6V51.352ZM375.93 55L356.538 34.328V55H352.058V10.264H356.538V31.192L375.93 10.264H381.626L360.698 32.6L381.818 55H375.93Z" fill="#343434"/>
</svg>
